<svg width="27" height="27" viewBox="0 0 27 27" fill="none" xmlns="http://www.w3.org/2000/svg">
<path d="M24.5025 5.7375C22.0725 2.295 18.09 0 13.5 0C8.91 0 4.9275 2.295 2.4975 5.7375H24.5025Z" fill="#9F9C8A"/>
<path d="M0 13.5C0 14.31 0.0675 15.12 0.2025 15.8625H26.73C26.865 15.12 26.9325 14.31 26.9325 13.5C26.9325 12.69 26.865 11.88 26.73 11.1375H0.2025C0.0675 11.88 0 12.69 0 13.5Z" fill="#9F9C8A"/>
<path d="M2.4975 21.2625C4.9275 24.705 8.91 27 13.5 27C18.09 27 22.0725 24.705 24.5025 21.2625H2.4975Z" fill="#9F9C8A"/>
</svg>
