<svg width="28" height="24" viewBox="0 0 28 24" fill="none" xmlns="http://www.w3.org/2000/svg">
<path d="M16.64 19.36C17.52 19.36 18.16 20.08 18.16 20.88C18.16 21.76 17.44 22.4 16.64 22.4C15.76 22.4 15.12 21.68 15.12 20.88C15.12 20 15.84 19.36 16.64 19.36ZM16.64 17.76C14.88 17.76 13.52 19.12 13.52 20.88C13.52 22.64 14.88 24 16.64 24C18.4 24 19.76 22.64 19.76 20.88C19.76 19.12 18.4 17.76 16.64 17.76Z" fill="#5B451A"/>
<path d="M9.67996 19.36C10.56 19.36 11.2 20.08 11.2 20.88C11.2 21.76 10.48 22.4 9.67996 22.4C8.87996 22.4 8.15996 21.68 8.15996 20.88C8.15996 20 8.87996 19.36 9.67996 19.36ZM9.67996 17.76C7.91996 17.76 6.55996 19.12 6.55996 20.88C6.55996 22.64 7.99996 24 9.67996 24C11.44 24 12.8 22.64 12.8 20.88C12.8 19.12 11.44 17.76 9.67996 17.76Z" fill="#5B451A"/>
<path d="M20.96 16.56H7.76C6.08 16.56 4.64 15.2 4.64 13.44V3.12C4.64 2.56 4.16 2.08 3.6 2.08H1.04C0.48 2.08 0 1.6 0 1.04C0 0.48 0.48 0 1.04 0H3.6C5.28 0 6.72 1.36 6.72 3.12V13.44C6.72 14 7.2 14.48 7.76 14.48H20.96C21.6 14.48 22.16 14.08 22.48 13.52L25.84 6.88C25.92 6.56 25.92 6.24 25.68 5.92C25.52 5.6 25.2 5.44 24.8 5.44H10.08C9.52 5.44 9.04 4.96 9.04 4.4C9.04 3.84 9.52 3.36 10.08 3.36H24.88C25.92 3.36 26.88 3.84 27.44 4.72C28 5.6 28.16 6.64 27.76 7.6V7.68L24.4 14.4C23.68 15.76 22.4 16.56 20.96 16.56Z" fill="#5B451A"/>
</svg>
