<svg width="123" height="13" viewBox="0 0 123 13" fill="none" xmlns="http://www.w3.org/2000/svg">
<path d="M9.3125 8.21094C9.22396 9.4349 8.77083 10.3984 7.95312 11.1016C7.14062 11.8047 6.06771 12.1562 4.73438 12.1562C3.27604 12.1562 2.1276 11.6667 1.28906 10.6875C0.455729 9.70312 0.0390625 8.35417 0.0390625 6.64062V5.94531C0.0390625 4.85156 0.231771 3.88802 0.617188 3.05469C1.0026 2.22135 1.55208 1.58333 2.26562 1.14062C2.98438 0.692708 3.81771 0.46875 4.76562 0.46875C6.07812 0.46875 7.13542 0.820312 7.9375 1.52344C8.73958 2.22656 9.20312 3.21354 9.32812 4.48438H6.98438C6.92708 3.75 6.72135 3.21875 6.36719 2.89062C6.01823 2.55729 5.48438 2.39062 4.76562 2.39062C3.98438 2.39062 3.39844 2.67188 3.00781 3.23438C2.6224 3.79167 2.42448 4.65885 2.41406 5.83594V6.69531C2.41406 7.92448 2.59896 8.82292 2.96875 9.39062C3.34375 9.95833 3.93229 10.2422 4.73438 10.2422C5.45833 10.2422 5.9974 10.0781 6.35156 9.75C6.71094 9.41667 6.91667 8.90365 6.96875 8.21094H9.3125ZM13.1953 10.1172H18.1719V12H10.8516V0.625H13.1953V10.1172ZM27.9453 0.625V8.11719C27.9453 9.36198 27.5547 10.3464 26.7734 11.0703C25.9974 11.7943 24.9349 12.1562 23.5859 12.1562C22.2578 12.1562 21.2031 11.8047 20.4219 11.1016C19.6406 10.3984 19.2422 9.43229 19.2266 8.20312V0.625H21.5703V8.13281C21.5703 8.8776 21.7474 9.42188 22.1016 9.76562C22.4609 10.1042 22.9557 10.2734 23.5859 10.2734C24.9036 10.2734 25.5729 9.58073 25.5938 8.19531V0.625H27.9453ZM29.8672 12V0.625H33.8516C35.2318 0.625 36.2786 0.890625 36.9922 1.42188C37.7057 1.94792 38.0625 2.72135 38.0625 3.74219C38.0625 4.29948 37.9193 4.79167 37.6328 5.21875C37.3464 5.64062 36.9479 5.95052 36.4375 6.14844C37.0208 6.29427 37.4792 6.58854 37.8125 7.03125C38.151 7.47396 38.3203 8.01562 38.3203 8.65625C38.3203 9.75 37.9714 10.5781 37.2734 11.1406C36.5755 11.7031 35.5807 11.9896 34.2891 12H29.8672ZM32.2109 7.04688V10.1172H34.2188C34.7708 10.1172 35.2005 9.98698 35.5078 9.72656C35.8203 9.46094 35.9766 9.09635 35.9766 8.63281C35.9766 7.59115 35.4375 7.0625 34.3594 7.04688H32.2109ZM32.2109 5.39062H33.9453C35.1276 5.36979 35.7188 4.89844 35.7188 3.97656C35.7188 3.46094 35.5677 3.09115 35.2656 2.86719C34.9688 2.63802 34.4974 2.52344 33.8516 2.52344H32.2109V5.39062ZM49.3438 12H47V7.125H42.4297V12H40.0859V0.625H42.4297V5.23438H47V0.625H49.3438V12ZM60.7422 6.57031C60.7422 7.6901 60.5443 8.67188 60.1484 9.51562C59.7526 10.3594 59.1849 11.0104 58.4453 11.4688C57.7109 11.9271 56.8672 12.1562 55.9141 12.1562C54.9714 12.1562 54.1302 11.9297 53.3906 11.4766C52.651 11.0234 52.0781 10.3776 51.6719 9.53906C51.2656 8.69531 51.0599 7.72656 51.0547 6.63281V6.07031C51.0547 4.95052 51.2552 3.96615 51.6562 3.11719C52.0625 2.26302 52.6328 1.60938 53.3672 1.15625C54.1068 0.697917 54.9505 0.46875 55.8984 0.46875C56.8464 0.46875 57.6875 0.697917 58.4219 1.15625C59.1615 1.60938 59.7318 2.26302 60.1328 3.11719C60.5391 3.96615 60.7422 4.94792 60.7422 6.0625V6.57031ZM58.3672 6.05469C58.3672 4.86198 58.1536 3.95573 57.7266 3.33594C57.2995 2.71615 56.6901 2.40625 55.8984 2.40625C55.112 2.40625 54.5052 2.71354 54.0781 3.32812C53.651 3.9375 53.4349 4.83333 53.4297 6.01562V6.57031C53.4297 7.73177 53.6432 8.63281 54.0703 9.27344C54.4974 9.91406 55.112 10.2344 55.9141 10.2344C56.7005 10.2344 57.3047 9.92708 57.7266 9.3125C58.1484 8.69271 58.362 7.79167 58.3672 6.60938V6.05469ZM71.0547 0.625V8.11719C71.0547 9.36198 70.6641 10.3464 69.8828 11.0703C69.1068 11.7943 68.0443 12.1562 66.6953 12.1562C65.3672 12.1562 64.3125 11.8047 63.5312 11.1016C62.75 10.3984 62.3516 9.43229 62.3359 8.20312V0.625H64.6797V8.13281C64.6797 8.8776 64.8568 9.42188 65.2109 9.76562C65.5703 10.1042 66.0651 10.2734 66.6953 10.2734C68.013 10.2734 68.6823 9.58073 68.7031 8.19531V0.625H71.0547ZM78.875 9.01562C78.875 8.57292 78.7188 8.23438 78.4062 8C78.0938 7.76042 77.5312 7.51042 76.7188 7.25C75.9062 6.98438 75.263 6.72396 74.7891 6.46875C73.4974 5.77083 72.8516 4.83073 72.8516 3.64844C72.8516 3.03385 73.0234 2.48698 73.3672 2.00781C73.7161 1.52344 74.2135 1.14583 74.8594 0.875C75.5104 0.604167 76.2396 0.46875 77.0469 0.46875C77.8594 0.46875 78.5833 0.617188 79.2188 0.914062C79.8542 1.20573 80.3464 1.61979 80.6953 2.15625C81.0495 2.69271 81.2266 3.30208 81.2266 3.98438H78.8828C78.8828 3.46354 78.7188 3.0599 78.3906 2.77344C78.0625 2.48177 77.6016 2.33594 77.0078 2.33594C76.4349 2.33594 75.9896 2.45833 75.6719 2.70312C75.3542 2.94271 75.1953 3.26042 75.1953 3.65625C75.1953 4.02604 75.3802 4.33594 75.75 4.58594C76.125 4.83594 76.6745 5.07031 77.3984 5.28906C78.7318 5.6901 79.7031 6.1875 80.3125 6.78125C80.9219 7.375 81.2266 8.11458 81.2266 9C81.2266 9.98438 80.8542 10.7578 80.1094 11.3203C79.3646 11.8776 78.362 12.1562 77.1016 12.1562C76.2266 12.1562 75.4297 11.9974 74.7109 11.6797C73.9922 11.3568 73.4427 10.9167 73.0625 10.3594C72.6875 9.80208 72.5 9.15625 72.5 8.42188H74.8516C74.8516 9.67708 75.6016 10.3047 77.1016 10.3047C77.6589 10.3047 78.0938 10.1927 78.4062 9.96875C78.7188 9.73958 78.875 9.42188 78.875 9.01562ZM89.6641 7.07031H85.1641V10.1172H90.4453V12H82.8203V0.625H90.4297V2.52344H85.1641V5.23438H89.6641V7.07031ZM99.3672 7.4375L98.1484 8.75V12H95.8047V0.625H98.1484V5.78125L99.1797 4.36719L102.078 0.625H104.961L100.922 5.67969L105.078 12H102.289L99.3672 7.4375ZM108.453 12H106.109V0.625H108.453V12ZM113.695 0.625L116.617 8.875L119.523 0.625H122.602V12H120.25V8.89062L120.484 3.52344L117.414 12H115.805L112.742 3.53125L112.977 8.89062V12H110.633V0.625H113.695Z" fill="#6F6DD1"/>
</svg>
