<svg width="35" height="35" viewBox="0 0 35 35" fill="none" xmlns="http://www.w3.org/2000/svg">
<g clip-path="url(#clip0)">
<path d="M17.5507 0C7.81159 0 0 7.81159 0 17.5507C0 27.2899 7.81159 35.1014 17.5507 35.1014C27.2899 35.1014 35.1014 27.2899 35.1014 17.5507C35.1014 7.81159 27.1884 0 17.5507 0ZM17.5507 32.1594C13.5942 32.1594 9.94203 30.5362 7.30435 28V25.6667C7.30435 24.9565 7.6087 24.5507 8.01449 24.0435C8.42029 23.5362 8.82609 22.9275 8.82609 22.0145C8.82609 20.5942 7.6087 20.4928 6.89855 20.3913C6.3913 20.2899 5.98551 20.2899 5.68116 19.9855C5.47826 19.7826 5.27536 19.3768 5.07246 19.0725C4.66667 18.3623 4.05797 17.3478 3.04348 16.7391C3.44928 9.02898 9.73913 2.94203 17.5507 2.94203C17.9565 2.94203 18.3623 2.94203 18.7681 3.04348C18.6667 3.04348 18.5652 3.04348 18.4638 3.14493C18.3623 3.24638 18.2609 3.44927 18.2609 3.65217C18.2609 3.85507 18.3623 4.05797 18.4638 4.15942C18.7681 4.36232 18.7681 4.46377 18.7681 4.46377C18.7681 4.46377 18.6667 4.76812 17.8551 5.07246C16.7391 5.78261 15.2174 7.10145 15.0145 8.42029C14.913 9.02899 15.1159 9.53623 15.5217 10.0435C15.6232 10.1449 15.8261 10.2464 16.029 10.2464C17.0435 10.2464 17.8551 9.84058 18.5652 9.53623C19.3768 9.13043 20.087 8.82609 21.1014 8.82609C23.942 8.82609 26.1739 9.43478 26.1739 10.2464C26.1739 10.5507 26.0725 10.6522 26.0725 10.6522C25.6667 10.9565 24.4493 10.9565 23.4348 10.9565C23.1304 10.9565 22.8261 10.9565 22.5217 10.9565C21.5072 10.9565 21.2029 10.8551 20.8985 10.6522C20.4928 10.4493 19.9855 10.2464 18.8696 10.2464C17.6522 10.2464 15.4203 10.4493 14 11.971C12.7826 13.1884 12.8841 14.6087 12.9855 15.5217C12.9855 15.7246 12.9855 15.9275 12.9855 16.1304C12.9855 17.5507 14.4058 18.3623 15.9275 18.3623C18.1594 18.3623 20.087 18.7681 20.2899 19.0725C20.2899 19.8841 20.4928 20.4928 20.6957 20.8985C20.8985 21.3043 21 21.6087 21 22.0145C21 22.3188 20.8985 22.4203 20.7971 22.6232C20.4928 23.029 20.2899 23.3333 20.2899 24.2464C20.2899 25.7681 21.8116 27.4928 21.913 27.6956C22.0145 27.8985 22.2174 27.8985 22.4203 27.8985C22.5217 27.8985 22.5217 27.8985 22.6232 27.8985C23.029 27.7971 26.7826 26.7826 26.7826 24.2464C26.7826 23.4348 26.9855 23.2319 27.3913 22.9275C27.7971 22.6232 28.2029 22.2174 28.2029 21.3043C28.2029 20.6957 29.2174 19.1739 30.2319 18.1594C30.3333 18.058 30.4348 17.8551 30.4348 17.6522C30.4348 17.4493 30.3333 17.2464 30.1304 17.1449C29.5217 16.7391 28 15.3188 27.4928 13.8985C27.7971 14.1014 28.2029 14.3043 28.5072 14.6087C28.7101 14.8116 29.1159 15.0145 29.4203 14.913C30.029 14.913 30.7391 14.4058 31.3478 13.7971C31.6522 15.0145 31.8551 16.3333 31.8551 17.6522C32.1594 25.5652 25.5652 32.1594 17.5507 32.1594Z" fill="#9F9C8A"/>
</g>
<defs>
<clipPath id="clip0">
<rect width="35" height="35" fill="white"/>
</clipPath>
</defs>
</svg>
