<svg width="44" height="35" viewBox="0 0 44 35" fill="none" xmlns="http://www.w3.org/2000/svg">
<g clip-path="url(#clip0)">
<path d="M28.3256 35C30.1687 35 31.6628 33.5059 31.6628 31.6628C31.6628 29.8197 30.1687 28.3256 28.3256 28.3256C26.4825 28.3256 24.9884 29.8197 24.9884 31.6628C24.9884 33.5059 26.4825 35 28.3256 35Z" fill="#9F9C8A"/>
<path d="M15.1395 35C16.9826 35 18.4767 33.5059 18.4767 31.6628C18.4767 29.8197 16.9826 28.3256 15.1395 28.3256C13.2964 28.3256 11.8023 29.8197 11.8023 31.6628C11.8023 33.5059 13.2964 35 15.1395 35Z" fill="#9F9C8A"/>
<path d="M25.8831 26.6156H17.9063C14.7319 26.6156 11.8831 24.4993 10.9877 21.4063L6.83656 6.75516C6.59237 5.9412 6.02261 5.37143 5.20865 5.12725L1.46447 3.98771C0.406326 3.66213 -0.244837 2.5226 0.0807448 1.46446C0.406326 0.406318 1.54586 -0.244844 2.604 0.0807371L6.42958 1.22027C8.54586 1.87143 10.1738 3.49934 10.8249 5.69702L14.9761 20.3482C15.3831 21.7319 16.604 22.6272 17.9877 22.6272H25.9645C29.7087 22.6272 33.0459 20.4296 34.511 17.011L39.5575 4.88306C39.9645 3.82492 41.1854 3.41795 42.2435 3.82492C43.3017 4.2319 43.7087 5.45283 43.3017 6.51097L38.1738 18.5575C36.0575 23.4412 31.1738 26.6156 25.8831 26.6156Z" fill="#9F9C8A"/>
<path d="M34.4302 9.93023C34.4302 8.54651 34.186 7.24419 33.6163 6.10465C32.1512 2.52326 28.6512 0 24.5 0C23.1163 0 21.814 0.244186 20.6744 0.813953C20.1046 1.05814 19.5349 1.38372 18.9651 1.7093C18.4767 2.03488 17.907 2.44186 17.5 2.93023C15.7093 4.72093 14.6512 7.16279 14.6512 9.93023C14.6512 13.0233 16.0349 15.7907 18.2326 17.5814C18.4767 17.7442 18.7209 17.9884 18.9651 18.1512C19.4535 18.4767 20.0233 18.8023 20.6744 19.0465C21.8953 19.5349 23.1977 19.8605 24.5 19.8605C26.8605 19.8605 29.0581 19.0465 30.7674 17.5814C31.2558 17.1744 31.7442 16.686 32.1512 16.1977C32.7209 15.4651 33.2907 14.6512 33.6163 13.7558C34.186 12.6163 34.4302 11.314 34.4302 9.93023ZM24.5 17.8256C22.2209 17.8256 20.186 16.8488 18.7209 15.3023V14.4884C18.7209 14.0814 18.8837 13.8372 19.1279 13.5116C19.3721 13.186 19.5349 12.8605 19.5349 12.3721C19.5349 11.5581 18.8023 11.4767 18.4767 11.4767C18.2326 11.4767 17.907 11.3953 17.8256 11.2326C17.7442 11.1512 17.5814 10.907 17.5 10.6628C17.3372 10.3372 17.093 9.93023 16.686 9.60465C16.8488 5.37209 20.2674 1.95349 24.5814 1.95349C24.7442 1.95349 24.8256 1.95349 24.9884 1.95349C24.9884 2.03488 25.0698 2.19767 25.1512 2.27907C25.2326 2.52326 25.2326 2.60465 25.2326 2.60465C25.2326 2.60465 25.1512 2.76744 24.7442 2.93023C24.0116 3.25581 23.2791 3.98837 23.1163 4.80233C23.0349 5.12791 23.1977 5.45349 23.3605 5.69767C23.4419 5.77907 23.5233 5.77907 23.686 5.77907C24.2558 5.77907 24.6628 5.53488 25.1512 5.37209C25.5581 5.12791 26.0465 4.96512 26.6163 4.96512C28.2442 4.96512 29.5465 5.2907 29.5465 5.77907C29.5465 5.94186 29.4651 6.02326 29.4651 6.02326C29.3023 6.18605 28.5698 6.18605 28 6.18605C27.8372 6.18605 27.6744 6.18605 27.5116 6.18605C26.9419 6.18605 26.7791 6.10465 26.5349 6.02326C26.2907 5.94186 26.0465 5.77907 25.3953 5.77907C24.7442 5.77907 23.4419 5.94186 22.6279 6.75581C21.9767 7.40698 22.0581 8.22093 22.0581 8.7907C22.0581 8.95349 22.0581 9.03488 22.0581 9.11628C22.0581 9.93023 22.8721 10.3372 23.686 10.3372C24.9884 10.3372 26.0465 10.5814 26.1279 10.7442C26.1279 11.2326 26.2907 11.5581 26.3721 11.8023C26.4535 12.0465 26.5349 12.2093 26.5349 12.4535C26.5349 12.6163 26.5349 12.6977 26.4535 12.7791C26.2907 13.0233 26.1279 13.186 26.1279 13.6744C26.1279 14.5698 26.9419 15.4651 27.0233 15.6279C27.1047 15.7093 27.186 15.7907 27.3488 15.7907H27.4302C27.6744 15.7093 29.7907 15.1395 29.7907 13.7558C29.7907 13.3488 29.9535 13.186 30.1163 13.0233C30.2791 12.8605 30.6046 12.6163 30.6046 12.1279C30.6046 11.8023 31.1744 10.907 31.7442 10.3372C31.8256 10.2558 31.8256 10.1744 31.8256 10.0116C31.8256 9.93023 31.7442 9.76744 31.6628 9.68605C31.3372 9.44186 30.4419 8.62791 30.1977 7.81395C30.3605 7.89535 30.6046 8.05814 30.7674 8.22093C30.9302 8.38372 31.093 8.46512 31.3372 8.38372C31.5814 8.38372 31.8256 8.22093 32.1512 8.05814C32.314 8.7093 32.3953 9.36047 32.3953 10.0116C32.3953 14.2442 28.8953 17.8256 24.5 17.8256Z" fill="#9F9C8A"/>
</g>
<defs>
<clipPath id="clip0">
<rect width="43.4651" height="35" fill="white"/>
</clipPath>
</defs>
</svg>
