<svg width="37" height="35" viewBox="0 0 37 35" fill="none" xmlns="http://www.w3.org/2000/svg">
<g clip-path="url(#clip0)">
<path d="M36.6279 13.2674C36.4651 12.8605 36.1395 12.6163 35.7326 12.5349L24.3372 10.907L19.2907 0.569767C19.1279 0.244186 18.7209 0 18.314 0C17.907 0 17.5 0.244186 17.3372 0.569767L12.2907 10.907L0.895348 12.5349C0.488372 12.6163 0.16279 12.8605 -6.10948e-07 13.2674C-0.162791 13.6744 -6.10948e-07 14.0814 0.244185 14.407L8.46512 22.4651L7.32558 29.1395C6.75581 32.2326 9.19767 35.0814 12.2907 35.0814H24.1744C27.3488 35.0814 29.7093 32.2326 29.1395 29.1395L28 22.4651L36.2209 14.407C36.6279 14.0814 36.7907 13.6744 36.6279 13.2674ZM17.093 12.2907C20.5116 11.3953 23.6047 14.407 22.7093 17.907C22.3023 19.4535 21.0814 20.6744 19.5349 21.0814C16.1163 21.9767 13.0233 18.9651 13.9186 15.4651C14.407 13.9186 15.6279 12.6977 17.093 12.2907ZM12.9419 31.3372C11.5581 31.3372 10.6628 29.8721 11.314 28.7326C12.6163 26.2093 15.3023 24.4186 18.3953 24.4186C21.4884 24.4186 24.093 26.1279 25.4767 28.7326C26.1279 29.9535 25.1512 31.3372 23.8488 31.3372H12.9419Z" fill="#9F9C8A"/>
</g>
<defs>
<clipPath id="clip0">
<rect width="36.7093" height="35" fill="white"/>
</clipPath>
</defs>
</svg>
