<svg width="27" height="25" viewBox="0 0 27 25" fill="none" xmlns="http://www.w3.org/2000/svg">
<g clip-path="url(#clip0)">
<path d="M6.075 24.7725C7.83 22.68 10.53 21.33 13.5 21.33C16.47 21.33 19.1025 22.68 20.925 24.7725C24.57 22.3425 27 18.225 27 13.5C27 6.075 20.925 0 13.5 0C6.075 0 0 6.075 0 13.5C0 18.225 2.43 22.3425 6.075 24.7725ZM13.5 8.235C16.4025 8.235 18.765 10.5975 18.765 13.5C18.765 16.4025 16.4025 18.765 13.5 18.765C10.5975 18.765 8.235 16.4025 8.235 13.5C8.235 10.5975 10.5975 8.235 13.5 8.235Z" fill="#9F9C8A"/>
</g>
<defs>
<clipPath id="clip0">
<rect width="27" height="24.7725" fill="white"/>
</clipPath>
</defs>
</svg>
