<svg width="30" height="35" viewBox="0 0 30 35" fill="none" xmlns="http://www.w3.org/2000/svg">
<g clip-path="url(#clip0)">
<path d="M18.0698 4.06977C22.2209 4.06977 25.5581 7.40698 25.5581 11.5581V23.5233C25.5581 27.6744 22.2209 31.0116 18.0698 31.0116H11.4767C7.40698 30.9302 4.06977 27.593 4.06977 23.4419V11.5581C4.06977 7.40698 7.40698 4.06977 11.5581 4.06977H18.0698ZM18.0698 0H11.4767C5.12791 0 0 5.12791 0 11.5581V23.5233C0 29.8721 5.12791 35 11.5581 35H18.1512C24.5 35 29.7093 29.8721 29.7093 23.4419V11.5581C29.6279 5.12791 24.4186 0 18.0698 0Z" fill="#9F9C8A"/>
<path d="M21.3256 15.3837C20.1047 15.3837 19.2093 16.3605 19.2093 17.5C19.2093 18.7209 20.186 19.6163 21.3256 19.6163C22.5465 19.6163 23.4419 18.6395 23.4419 17.5C23.4419 16.2791 22.5465 15.3837 21.3256 15.3837Z" fill="#9F9C8A"/>
</g>
<defs>
<clipPath id="clip0">
<rect width="29.6279" height="35" fill="white"/>
</clipPath>
</defs>
</svg>
