<svg width="35" height="35" viewBox="0 0 35 35" fill="none" xmlns="http://www.w3.org/2000/svg">
<g clip-path="url(#clip0)">
<path d="M12.0465 0.732572L9.60465 2.11629C8.95349 2.52327 8.7093 3.33722 9.11628 3.98839C9.19767 4.23257 9.27907 4.39536 9.27907 4.63955C9.27907 5.37211 8.62791 6.02327 7.89535 6.02327C7.40698 6.02327 6.9186 5.77908 6.67442 5.37211C6.34884 4.72094 5.53488 4.47676 4.88372 4.80234L2.68605 6.10466C1.46512 6.83722 0.569768 7.97676 0.162792 9.36048C-0.244185 10.7442 9.31323e-07 12.2093 0.651164 13.4302L11.4767 32.2326C12.4535 33.9419 14.2442 34.9186 16.1977 34.9186H21.407C22.1395 34.9186 22.7907 34.2675 22.7907 33.5349C22.7907 32.8023 23.4419 32.1512 24.1744 32.1512C24.907 32.1512 25.5581 32.8023 25.5581 33.5349C25.5581 34.2675 26.2093 34.9186 26.9419 34.9186H29.6279C32.6395 34.9186 35.0814 32.4768 35.0814 29.4651V7.48839C35.0814 4.47676 32.6395 2.0349 29.6279 2.0349H26.8605C26.1279 2.0349 25.4767 2.68606 25.4767 3.41862C25.4767 4.15118 24.8256 4.80234 24.093 4.80234C23.3605 4.80234 22.7093 4.15118 22.7093 3.41862C22.7093 2.68606 22.0581 2.0349 21.3256 2.0349H18.9651C17.3372 1.39723e-05 14.407 -0.651149 12.0465 0.732572ZM15.7093 2.93025C14.1628 3.90699 13.186 5.61629 13.186 7.56978V10.9884C12.7791 10.7442 12.2907 10.7442 11.8023 10.9884C11.1512 11.3954 10.907 12.2093 11.314 12.8605C11.7209 13.5116 12.5349 13.7558 13.186 13.3488V20.6744C13.186 21.407 13.8372 22.0582 14.5698 22.0582C15.3023 22.0582 15.9535 21.407 15.9535 20.6744V7.65118C15.9535 6.10466 17.1744 4.88373 18.7209 4.88373H20.4302C21 6.51164 22.5465 7.65118 24.3372 7.65118C26.1279 7.65118 27.6744 6.51164 28.2442 4.88373H29.7907C31.3372 4.88373 32.5581 6.10466 32.5581 7.65118V29.6279C32.5581 31.1744 31.3372 32.3954 29.7907 32.3954H28.2442C27.6744 30.7675 26.1279 29.6279 24.3372 29.6279C22.5465 29.6279 21 30.7675 20.4302 32.3954H18.7209C17.1744 32.3954 15.9535 31.1744 15.9535 29.6279V27.5116C15.9535 26.7791 15.3023 26.1279 14.5698 26.1279C13.8372 26.1279 13.186 26.7791 13.186 27.5116V29.6279V29.7093L3.09302 12.1279C2.76744 11.4768 2.60465 10.8256 2.84884 10.093C3.01163 9.44187 3.5 8.79071 4.06977 8.46513L5.2907 7.81397C6.02326 8.46513 7 8.79071 7.97674 8.79071C10.2558 8.79071 12.0465 6.91862 12.0465 4.72094C12.0465 4.47676 12.0465 4.23257 11.9651 3.98839L13.4302 3.17443C14.1628 2.68606 14.9767 2.60466 15.7093 2.93025Z" fill="#9F9C8A"/>
<path d="M19.2907 13.6744C20.0549 13.6744 20.6744 13.0549 20.6744 12.2907C20.6744 11.5265 20.0549 10.907 19.2907 10.907C18.5265 10.907 17.907 11.5265 17.907 12.2907C17.907 13.0549 18.5265 13.6744 19.2907 13.6744Z" fill="#9F9C8A"/>
<path d="M24.093 13.6744C24.8572 13.6744 25.4767 13.0549 25.4767 12.2907C25.4767 11.5265 24.8572 10.907 24.093 10.907C23.3288 10.907 22.7093 11.5265 22.7093 12.2907C22.7093 13.0549 23.3288 13.6744 24.093 13.6744Z" fill="#9F9C8A"/>
<path d="M28.814 13.6744C29.5782 13.6744 30.1977 13.0549 30.1977 12.2907C30.1977 11.5265 29.5782 10.907 28.814 10.907C28.0497 10.907 27.4302 11.5265 27.4302 12.2907C27.4302 13.0549 28.0497 13.6744 28.814 13.6744Z" fill="#9F9C8A"/>
<path d="M8.30233 15.8721C9.06653 15.8721 9.68605 15.2526 9.68605 14.4884C9.68605 13.7242 9.06653 13.1047 8.30233 13.1047C7.53812 13.1047 6.91861 13.7242 6.91861 14.4884C6.91861 15.2526 7.53812 15.8721 8.30233 15.8721Z" fill="#9F9C8A"/>
</g>
<defs>
<clipPath id="clip0">
<rect width="35" height="35" fill="white"/>
</clipPath>
</defs>
</svg>
